# xmcd CD database file
#
# Track frame offsets:
#	150
#	25322
#	29487
#	72010
#	102400
#	138447
#	161157
#	167855
#	213640
#	234787
#	240997
#	298955
#
# Disc length: 4199 seconds
#
# Revision: 1
# Processed by: cddbd v1.4PL0 Copyright (c) Steve Scherf et al.
# Submitted via: CDex 1.50
#
DISCID=ac10650c
DTITLE=Jefferson Grant Quintet - As One
DYEAR=2002
DGENRE=Jazz
TTITLE0=GMG
TTITLE1=Thousand Cuts-Tuna Puna
TTITLE2=All Things Considered
TTITLE3=A Night In Soho
TTITLE4=Reflections of Romance
TTITLE5=As One
TTITLE6=Thousand Cuts
TTITLE7=Streams to a River
TTITLE8=Counting the Days
TTITLE9=Thousand Cuts-Upper West Side
TTITLE10=Coping
TTITLE11=As One-Reprise
EXTD=YEAR: 2002
EXTT0=
EXTT1=
EXTT2=
EXTT3=
EXTT4=
EXTT5=
EXTT6=
EXTT7=
EXTT8=
EXTT9=
EXTT10=
EXTT11=
PLAYORDER=
